<svg viewBox="0 0 24 24" xmlns="http://www.w3.org/2000/svg" fill="#fff" width="24px" height="24px">
  <path d="M 2.279 3.029 C 1.042 3.029 0.037 4.033 0.037 5.27 C 0.037 5.977 0.37 6.641 0.934 7.066 L 11.103 14.691 C 11.636 15.09 12.364 15.09 12.897 14.691 L 23.066 7.066 C 23.63 6.641 23.963 5.977 23.963 5.27 C 23.963 4.033 22.958 3.029 21.721 3.029 L 2.279 3.029 Z M 0.037 8.263 L 0.037 17.981 C 0.037 19.632 1.377 20.971 3.029 20.971 L 20.971 20.971 C 22.623 20.971 23.963 19.632 23.963 17.981 L 23.963 8.263 L 13.793 15.888 C 12.729 16.687 11.271 16.687 10.207 15.888 L 0.037 8.263 Z" transform="matrix(0.9999999999999999, 0, 0, 0.9999999999999999, 0, -1.1102230246251565e-16)"/>
</svg>