<svg xmlns="http://www.w3.org/2000/svg">
  <symbol id="discord">
    <path d="M 17.713 20.571 C 17.713 20.571 16.973 19.694 16.356 18.918 C 19.048 18.163 20.075 16.489 20.075 16.489 C 19.234 17.041 18.432 17.428 17.713 17.693 C 16.686 18.122 15.699 18.408 14.733 18.571 C 12.761 18.939 10.952 18.836 9.41 18.551 C 8.239 18.326 7.233 18 6.39 17.673 C 5.917 17.49 5.404 17.266 4.89 16.979 C 4.829 16.938 4.766 16.918 4.705 16.877 C 4.664 16.857 4.644 16.837 4.623 16.816 C 4.253 16.612 4.047 16.469 4.047 16.469 C 4.047 16.469 5.034 18.102 7.644 18.878 C 7.027 19.653 6.267 20.571 6.267 20.571 C 1.726 20.428 0 17.469 0 17.469 C 0 10.898 2.959 5.571 2.959 5.571 C 5.917 3.368 8.732 3.429 8.732 3.429 L 8.938 3.674 C 5.239 4.735 3.534 6.348 3.534 6.348 C 3.534 6.348 3.986 6.103 4.746 5.755 C 6.945 4.796 8.691 4.531 9.41 4.47 C 9.534 4.45 9.636 4.43 9.76 4.43 C 11.013 4.266 12.432 4.225 13.912 4.388 C 15.863 4.612 17.959 5.184 20.096 6.348 C 20.096 6.348 18.473 4.817 14.979 3.756 L 15.268 3.429 C 15.268 3.429 18.083 3.368 21.041 5.571 C 21.041 5.571 24 10.898 24 17.469 C 24 17.469 22.254 20.428 17.713 20.571 Z M 8.157 11.041 C 6.986 11.041 6.061 12.061 6.061 13.307 C 6.061 14.551 7.006 15.571 8.157 15.571 C 9.328 15.571 10.253 14.551 10.253 13.307 C 10.273 12.061 9.328 11.041 8.157 11.041 Z M 15.658 11.041 C 14.486 11.041 13.562 12.061 13.562 13.307 C 13.562 14.551 14.507 15.571 15.658 15.571 C 16.829 15.571 17.753 14.551 17.753 13.307 C 17.753 12.061 16.829 11.041 15.658 11.041 Z"/>
  </symbol>
  <symbol id="twitter">
    <path d="M21.543 7.104c.015.211.015.423.015.636 0 6.507-4.954 14.01-14.01 14.01v-.003A13.94 13.94 0 0 1 0 19.539a9.88 9.88 0 0 0 7.287-2.041 4.93 4.93 0 0 1-4.6-3.42 4.916 4.916 0 0 0 2.223-.084A4.926 4.926 0 0 1 .96 9.167v-.062a4.887 4.887 0 0 0 2.235.616A4.928 4.928 0 0 1 1.67 3.148 13.98 13.98 0 0 0 11.82 8.292a4.929 4.929 0 0 1 8.39-4.49 9.868 9.868 0 0 0 3.128-1.196 4.941 4.941 0 0 1-2.165 2.724A9.828 9.828 0 0 0 24 4.555a10.019 10.019 0 0 1-2.457 2.549z"/>
  </symbol>
  <symbol id="bluesky">
    <path d="M12 10.8c-1.087-2.114-4.046-6.053-6.798-7.995C2.566.944 1.561 1.266.902 1.565.139 1.908 0 3.08 0 3.768c0 .69.378 5.65.624 6.479.815 2.736 3.713 3.66 6.383 3.364.136-.02.275-.039.415-.056-.138.022-.276.04-.415.056-3.912.58-7.387 2.005-2.83 7.078 5.013 5.19 6.87-1.113 7.823-4.308.953 3.195 2.05 9.271 7.733 4.308 4.267-4.308 1.172-6.498-2.74-7.078a8.741 8.741 0 0 1-.415-.056c.14.017.279.036.415.056 2.67.297 5.568-.628 6.383-3.364.246-.828.624-5.79.624-6.478 0-.69-.139-1.861-.902-2.206-.659-.298-1.664-.62-4.3 1.24C16.046 4.748 13.087 8.687 12 10.8Z"/>
  </symbol>
  <symbol id="instagram">
    <path d="M7.0301.084c-1.2768.0602-2.1487.264-2.911.5634-.7888.3075-1.4575.72-2.1228 1.3877-.6652.6677-1.075 1.3368-1.3802 2.127-.2954.7638-.4956 1.6365-.552 2.914-.0564 1.2775-.0689 1.6882-.0626 4.947.0062 3.2586.0206 3.6671.0825 4.9473.061 1.2765.264 2.1482.5635 2.9107.308.7889.72 1.4573 1.388 2.1228.6679.6655 1.3365 1.0743 2.1285 1.38.7632.295 1.6361.4961 2.9134.552 1.2773.056 1.6884.069 4.9462.0627 3.2578-.0062 3.668-.0207 4.9478-.0814 1.28-.0607 2.147-.2652 2.9098-.5633.7889-.3086 1.4578-.72 2.1228-1.3881.665-.6682 1.0745-1.3378 1.3795-2.1284.2957-.7632.4966-1.636.552-2.9124.056-1.2809.0692-1.6898.063-4.948-.0063-3.2583-.021-3.6668-.0817-4.9465-.0607-1.2797-.264-2.1487-.5633-2.9117-.3084-.7889-.72-1.4568-1.3876-2.1228C21.2982 1.33 20.628.9208 19.8378.6165 19.074.321 18.2017.1197 16.9244.0645 15.6471.0093 15.236-.005 11.977.0014 8.718.0076 8.31.0215 7.0301.0839m.1402 21.6932c-1.17-.0509-1.8053-.2453-2.2287-.408-.5606-.216-.96-.4771-1.3819-.895-.422-.4178-.6811-.8186-.9-1.378-.1644-.4234-.3624-1.058-.4171-2.228-.0595-1.2645-.072-1.6442-.079-4.848-.007-3.2037.0053-3.583.0607-4.848.05-1.169.2456-1.805.408-2.2282.216-.5613.4762-.96.895-1.3816.4188-.4217.8184-.6814 1.3783-.9003.423-.1651 1.0575-.3614 2.227-.4171 1.2655-.06 1.6447-.072 4.848-.079 3.2033-.007 3.5835.005 4.8495.0608 1.169.0508 1.8053.2445 2.228.408.5608.216.96.4754 1.3816.895.4217.4194.6816.8176.9005 1.3787.1653.4217.3617 1.056.4169 2.2263.0602 1.2655.0739 1.645.0796 4.848.0058 3.203-.0055 3.5834-.061 4.848-.051 1.17-.245 1.8055-.408 2.2294-.216.5604-.4763.96-.8954 1.3814-.419.4215-.8181.6811-1.3783.9-.4224.1649-1.0577.3617-2.2262.4174-1.2656.0595-1.6448.072-4.8493.079-3.2045.007-3.5825-.006-4.848-.0608M16.953 5.5864A1.44 1.44 0 1 0 18.39 4.144a1.44 1.44 0 0 0-1.437 1.4424M5.8385 12.012c.0067 3.4032 2.7706 6.1557 6.173 6.1493 3.4026-.0065 6.157-2.7701 6.1506-6.1733-.0065-3.4032-2.771-6.1565-6.174-6.1498-3.403.0067-6.156 2.771-6.1496 6.1738M8 12.0077a4 4 0 1 1 4.008 3.9921A3.9996 3.9996 0 0 1 8 12.0077"/>
  </symbol>
  <symbol id="telegram">
    <path d="M11.944 0A12 12 0 0 0 0 12a12 12 0 0 0 12 12 12 12 0 0 0 12-12A12 12 0 0 0 12 0a12 12 0 0 0-.056 0zm4.962 7.224c.1-.002.321.023.465.14a.506.506 0 0 1 .171.325c.016.093.036.306.02.472-.18 1.898-.962 6.502-1.36 8.627-.168.9-.499 1.201-.82 1.23-.696.065-1.225-.46-1.9-.902-1.056-.693-1.653-1.124-2.678-1.8-1.185-.78-.417-1.21.258-1.91.177-.184 3.247-2.977 3.307-3.23.007-.032.014-.15-.056-.212s-.174-.041-.249-.024c-.106.024-1.793 1.14-5.061 3.345-.48.33-.913.49-1.302.48-.428-.008-1.252-.241-1.865-.44-.752-.245-1.349-.374-1.297-.789.027-.216.325-.437.893-.663 3.498-1.524 5.83-2.529 6.998-3.014 3.332-1.386 4.025-1.627 4.476-1.635z"/>
  </symbol>
  <symbol id="lastfm">
    <path d="M10.584 17.21l-.88-2.392s-1.43 1.594-3.573 1.594c-1.897 0-3.244-1.649-3.244-4.288 0-3.382 1.704-4.591 3.381-4.591 2.42 0 3.189 1.567 3.849 3.574l.88 2.749c.88 2.666 2.529 4.81 7.285 4.81 3.409 0 5.718-1.044 5.718-3.793 0-2.227-1.265-3.381-3.63-3.931l-1.758-.385c-1.21-.275-1.567-.77-1.567-1.595 0-.934.742-1.484 1.952-1.484 1.32 0 2.034.495 2.144 1.677l2.749-.33c-.22-2.474-1.924-3.492-4.729-3.492-2.474 0-4.893.935-4.893 3.932 0 1.87.907 3.051 3.189 3.601l1.87.44c1.402.33 1.869.907 1.869 1.704 0 1.017-.99 1.43-2.86 1.43-2.776 0-3.93-1.457-4.59-3.464l-.907-2.75c-1.155-3.573-2.997-4.893-6.653-4.893C2.144 5.333 0 7.89 0 12.233c0 4.18 2.144 6.434 5.993 6.434 3.106 0 4.591-1.457 4.591-1.457z"/>
  </symbol>
  <symbol id="steam">
    <path d="M11.979 0C5.678 0 .511 4.86.022 11.037l6.432 2.658c.545-.371 1.203-.59 1.912-.59.063 0 .125.004.188.006l2.861-4.142V8.91c0-2.495 2.028-4.524 4.524-4.524 2.494 0 4.524 2.031 4.524 4.527s-2.03 4.525-4.524 4.525h-.105l-4.076 2.911c0 .052.004.105.004.159 0 1.875-1.515 3.396-3.39 3.396-1.635 0-3.016-1.173-3.331-2.727L.436 15.27C1.862 20.307 6.486 24 11.979 24c6.627 0 11.999-5.373 11.999-12S18.605 0 11.979 0zM7.54 18.21l-1.473-.61c.262.543.714.999 1.314 1.25 1.297.539 2.793-.076 3.332-1.375.263-.63.264-1.319.005-1.949s-.75-1.121-1.377-1.383c-.624-.26-1.29-.249-1.878-.03l1.523.63c.956.4 1.409 1.5 1.009 2.455-.397.957-1.497 1.41-2.454 1.012H7.54zm11.415-9.303c0-1.662-1.353-3.015-3.015-3.015-1.665 0-3.015 1.353-3.015 3.015 0 1.665 1.35 3.015 3.015 3.015 1.663 0 3.015-1.35 3.015-3.015zm-5.273-.005c0-1.252 1.013-2.266 2.265-2.266 1.249 0 2.266 1.014 2.266 2.266 0 1.251-1.017 2.265-2.266 2.265-1.253 0-2.265-1.014-2.265-2.265z"/>
  </symbol>
  <symbol id="letterboxd">
    <path d="M8.224 14.352a4.447 4.447 0 0 1-3.775 2.092C1.992 16.444 0 14.454 0 12s1.992-4.444 4.45-4.444c1.592 0 2.988.836 3.774 2.092-.427.682-.673 1.488-.673 2.352s.246 1.67.673 2.352zM15.101 12c0-.864.247-1.67.674-2.352-.786-1.256-2.183-2.092-3.775-2.092s-2.989.836-3.775 2.092c.427.682.674 1.488.674 2.352s-.247 1.67-.674 2.352c.786 1.256 2.183 2.092 3.775 2.092s2.989-.836 3.775-2.092A4.42 4.42 0 0 1 15.1 12zm4.45-4.444a4.447 4.447 0 0 0-3.775 2.092c.427.682.673 1.488.673 2.352s-.246 1.67-.673 2.352a4.447 4.447 0 0 0 3.775 2.092C22.008 16.444 24 14.454 24 12s-1.992-4.444-4.45-4.444z"/>
  </symbol>
  <symbol id="email">
    <path d="M15.61 12c0 1.99-1.62 3.61-3.61 3.61-1.99 0-3.61-1.62-3.61-3.61 0-1.99 1.62-3.61 3.61-3.61 1.99 0 3.61 1.62 3.61 3.61M12 0C5.383 0 0 5.383 0 12s5.383 12 12 12c2.424 0 4.761-.722 6.76-2.087l.034-.024-1.617-1.879-.027.017A9.494 9.494 0 0 1 12 21.54c-5.26 0-9.54-4.28-9.54-9.54 0-5.26 4.28-9.54 9.54-9.54 5.26 0 9.54 4.28 9.54 9.54a9.63 9.63 0 0 1-.225 2.05c-.301 1.239-1.169 1.618-1.82 1.568-.654-.053-1.42-.52-1.426-1.661V12A6.076 6.076 0 0 0 12 5.93 6.076 6.076 0 0 0 5.93 12 6.076 6.076 0 0 0 12 18.07a6.02 6.02 0 0 0 4.3-1.792 3.9 3.9 0 0 0 3.32 1.805c.874 0 1.74-.292 2.437-.821.719-.547 1.256-1.336 1.553-2.285.047-.154.135-.504.135-.507l.002-.013c.175-.76.253-1.52.253-2.457 0-6.617-5.383-12-12-12"/>
  </symbol>
  <symbol id="photography">
    <g transform="matrix(0.04923400282859803, 0, 0, 0.04923400282859803, 0.011520001105964184, 0.011520001105964628)">
      <path d="M308.1,277.95c0,35.7-28.9,64.6-64.6,64.6s-64.6-28.9-64.6-64.6s28.9-64.6,64.6-64.6S308.1,242.25,308.1,277.95z&#10;&#9;&#9;&#9; M440.3,116.05c25.8,0,46.7,20.9,46.7,46.7v122.4v103.8c0,27.5-22.3,49.8-49.8,49.8H49.8c-27.5,0-49.8-22.3-49.8-49.8v-103.9&#10;&#9;&#9;&#9;v-122.3l0,0c0-25.8,20.9-46.7,46.7-46.7h93.4l4.4-18.6c6.7-28.8,32.4-49.2,62-49.2h74.1c29.6,0,55.3,20.4,62,49.2l4.3,18.6H440.3z&#10;&#9;&#9;&#9; M97.4,183.45c0-12.9-10.5-23.4-23.4-23.4c-13,0-23.5,10.5-23.5,23.4s10.5,23.4,23.4,23.4C86.9,206.95,97.4,196.45,97.4,183.45z&#10;&#9;&#9;&#9; M358.7,277.95c0-63.6-51.6-115.2-115.2-115.2s-115.2,51.6-115.2,115.2s51.6,115.2,115.2,115.2S358.7,341.55,358.7,277.95z"/>
    </g>
  </symbol>
  <symbol id="fortography">
    <g transform="matrix(0.0054419999942183495, 0, 0, -0.0054419999942183495, 7.09896087646484, 24.000879287719723)">
      <path d="M0 2205 c0 -1213 3 -2205 7 -2205 6 0 821 151 921 171 l52 10 0 810 0 809 310 0 310 0 0 148 c0 81 3 292 7 470 l6 322 -316 0 -317 0 0 355 0 355 365 0 c201 0 365 2 365 5 0 11 80 865 85 908 l6 47 -901 0 -900 0 0 -2205z"/>
    </g>
  </symbol>
  <symbol id="blender">
    <path d="M12.51 13.214c.046-.8.438-1.506 1.03-2.006a3.424 3.424 0 0 1 2.212-.79c.85 0 1.631.3 2.211.79.592.5.983 1.206 1.028 2.005.045.823-.285 1.586-.865 2.153a3.389 3.389 0 0 1-2.374.938 3.393 3.393 0 0 1-2.376-.938c-.58-.567-.91-1.33-.865-2.152M7.35 14.831c.006.314.106.922.256 1.398a7.372 7.372 0 0 0 1.593 2.757 8.227 8.227 0 0 0 2.787 2.001 8.947 8.947 0 0 0 3.66.76 8.964 8.964 0 0 0 3.657-.772 8.285 8.285 0 0 0 2.785-2.01 7.428 7.428 0 0 0 1.592-2.762 6.964 6.964 0 0 0 .25-3.074 7.123 7.123 0 0 0-1.016-2.779 7.764 7.764 0 0 0-1.852-2.043h.002L13.566 2.55l-.02-.015c-.492-.378-1.319-.376-1.86.002-.547.382-.609 1.015-.123 1.415l-.001.001 3.126 2.543-9.53.01h-.013c-.788.001-1.545.518-1.695 1.172-.154.665.38 1.217 1.2 1.22V8.9l4.83-.01-8.62 6.617-.034.025c-.813.622-1.075 1.658-.563 2.313.52.667 1.625.668 2.447.004L7.414 14s-.069.52-.063.831zm12.09 1.741c-.97.988-2.326 1.548-3.795 1.55-1.47.004-2.827-.552-3.797-1.538a4.51 4.51 0 0 1-1.036-1.622 4.282 4.282 0 0 1 .282-3.519 4.702 4.702 0 0 1 1.153-1.371c.942-.768 2.141-1.183 3.396-1.185 1.256-.002 2.455.41 3.398 1.175.48.391.87.854 1.152 1.367a4.28 4.28 0 0 1 .522 1.706 4.236 4.236 0 0 1-.239 1.811 4.54 4.54 0 0 1-1.035 1.626"/>
  </symbol>
  <symbol id="code">
    <g transform="matrix(1, 0, 0, 1, 1.7763568394002505e-15, 4.440892098500626e-16)">
      <path d="M 14.73 2.445 C 14.092 2.261 13.428 2.631 13.244 3.27 L 8.445 20.07 C 8.261 20.707 8.631 21.372 9.27 21.555 C 9.908 21.739 10.572 21.369 10.756 20.73 L 15.555 3.93 C 15.739 3.293 15.369 2.628 14.73 2.445 Z M 17.753 6.949 C 17.284 7.416 17.284 8.179 17.753 8.647 L 21.102 12 L 17.749 15.353 C 17.281 15.822 17.281 16.584 17.749 17.051 C 18.218 17.52 18.978 17.52 19.447 17.051 L 23.649 12.852 C 24.116 12.383 24.116 11.621 23.649 11.152 L 19.447 6.953 C 18.978 6.484 18.218 6.484 17.749 6.953 L 17.753 6.949 Z M 6.251 6.949 C 5.782 6.48 5.022 6.48 4.553 6.949 L 0.351 11.148 C -0.116 11.617 -0.116 12.379 0.351 12.848 L 4.553 17.047 C 5.022 17.516 5.782 17.516 6.251 17.047 C 6.719 16.579 6.719 15.819 6.251 15.349 L 2.898 12 L 6.251 8.647 C 6.719 8.179 6.719 7.416 6.251 6.949 Z"/>
    </g>
  </symbol>
  <symbol id="fursona">
    <g transform="matrix(0.4896350502967834, 0, 0, 0.4896350502967834, 0.043264999985694885, 0.04335600510239557)">
      <path d="M39.041,36.843c2.054,3.234,3.022,4.951,3.022,6.742c0,3.537-2.627,5.252-6.166,5.252&#10;&#9;&#9;c-1.56,0-2.567-0.002-5.112-1.326c0,0-1.649-1.509-5.508-1.354c-3.895-0.154-5.545,1.373-5.545,1.373&#10;&#9;&#9;c-2.545,1.323-3.516,1.309-5.074,1.309c-3.539,0-6.168-1.713-6.168-5.252c0-1.791,0.971-3.506,3.024-6.742&#10;&#9;&#9;c0,0,3.881-6.445,7.244-9.477c2.43-2.188,5.973-2.18,5.973-2.18h1.093v-0.001c0,0,3.698-0.009,5.976,2.181&#10;&#9;&#9;C35.059,30.51,39.041,36.844,39.041,36.843z M16.631,20.878c3.7,0,6.699-4.674,6.699-10.439S20.331,0,16.631,0&#10;&#9;&#9;S9.932,4.674,9.932,10.439S12.931,20.878,16.631,20.878z M10.211,30.988c2.727-1.259,3.349-5.723,1.388-9.971&#10;&#9;&#9;s-5.761-6.672-8.488-5.414s-3.348,5.723-1.388,9.971C3.684,29.822,7.484,32.245,10.211,30.988z M32.206,20.878&#10;&#9;&#9;c3.7,0,6.7-4.674,6.7-10.439S35.906,0,32.206,0s-6.699,4.674-6.699,10.439C25.507,16.204,28.506,20.878,32.206,20.878z&#10;&#9;&#9; M45.727,15.602c-2.728-1.259-6.527,1.165-8.488,5.414s-1.339,8.713,1.389,9.972c2.728,1.258,6.527-1.166,8.488-5.414&#10;&#9;&#9;S48.455,16.861,45.727,15.602z"/>
    </g>
  </symbol>
</svg>