<svg viewBox="0 0 24 24" xmlns="http://www.w3.org/2000/svg">
  <path d="M 17.713 20.571 C 17.713 20.571 16.973 19.694 16.356 18.918 C 19.048 18.163 20.075 16.489 20.075 16.489 C 19.234 17.041 18.432 17.428 17.713 17.693 C 16.686 18.122 15.699 18.408 14.733 18.571 C 12.761 18.939 10.952 18.836 9.41 18.551 C 8.239 18.326 7.233 18 6.39 17.673 C 5.917 17.49 5.404 17.266 4.89 16.979 C 4.829 16.938 4.766 16.918 4.705 16.877 C 4.664 16.857 4.644 16.837 4.623 16.816 C 4.253 16.612 4.047 16.469 4.047 16.469 C 4.047 16.469 5.034 18.102 7.644 18.878 C 7.027 19.653 6.267 20.571 6.267 20.571 C 1.726 20.428 0 17.469 0 17.469 C 0 10.898 2.959 5.571 2.959 5.571 C 5.917 3.368 8.732 3.429 8.732 3.429 L 8.938 3.674 C 5.239 4.735 3.534 6.348 3.534 6.348 C 3.534 6.348 3.986 6.103 4.746 5.755 C 6.945 4.796 8.691 4.531 9.41 4.47 C 9.534 4.45 9.636 4.43 9.76 4.43 C 11.013 4.266 12.432 4.225 13.912 4.388 C 15.863 4.612 17.959 5.184 20.096 6.348 C 20.096 6.348 18.473 4.817 14.979 3.756 L 15.268 3.429 C 15.268 3.429 18.083 3.368 21.041 5.571 C 21.041 5.571 24 10.898 24 17.469 C 24 17.469 22.254 20.428 17.713 20.571 Z M 8.157 11.041 C 6.986 11.041 6.061 12.061 6.061 13.307 C 6.061 14.551 7.006 15.571 8.157 15.571 C 9.328 15.571 10.253 14.551 10.253 13.307 C 10.273 12.061 9.328 11.041 8.157 11.041 Z M 15.658 11.041 C 14.486 11.041 13.562 12.061 13.562 13.307 C 13.562 14.551 14.507 15.571 15.658 15.571 C 16.829 15.571 17.753 14.551 17.753 13.307 C 17.753 12.061 16.829 11.041 15.658 11.041 Z" />
</svg>